<?xml version="1.0" standalone="no"?><svg xmlns="http://www.w3.org/2000/svg" viewBox="0 0 1440 320"><path fill="#ffd700" fill-opacity="1" d="M0,96L34.3,117.3C68.6,139,137,181,206,165.3C274.3,149,343,75,411,85.3C480,96,549,192,617,229.3C685.7,267,754,245,823,234.7C891.4,224,960,224,1029,202.7C1097.1,181,1166,139,1234,133.3C1302.9,128,1371,160,1406,176L1440,192L1440,320L1405.7,320C1371.4,320,1303,320,1234,320C1165.7,320,1097,320,1029,320C960,320,891,320,823,320C754.3,320,686,320,617,320C548.6,320,480,320,411,320C342.9,320,274,320,206,320C137.1,320,69,320,34,320L0,320Z"></path></svg>