<?xml version="1.0" standalone="no"?><svg xmlns="http://www.w3.org/2000/svg" viewBox="0 0 1440 320"><path fill="#e7008a" fill-opacity="1" d="M0,128L40,154.7C80,181,160,235,240,224C320,213,400,139,480,117.3C560,96,640,128,720,165.3C800,203,880,245,960,266.7C1040,288,1120,288,1200,240C1280,192,1360,96,1400,48L1440,0L1440,320L1400,320C1360,320,1280,320,1200,320C1120,320,1040,320,960,320C880,320,800,320,720,320C640,320,560,320,480,320C400,320,320,320,240,320C160,320,80,320,40,320L0,320Z"></path></svg>