<svg version="1.0" xmlns="http://www.w3.org/2000/svg" xmlns:xlink="http://www.w3.org/1999/xlink" x="0px" y="0px"
	 width="2561.5px" height="1725.92px" viewBox="0 0 2561.5 1725.92" enable-background="new 0 0 2561.5 1725.92"
	 xml:space="preserve">
<rect x="1" y="0.67" fill-rule="evenodd" clip-rule="evenodd" fill="#EF9E2B" width="2560" height="1724"/>
<polygon fill-rule="evenodd" clip-rule="evenodd" fill="#FDCE44" stroke="#FDCE44" stroke-width="2" stroke-linecap="round" stroke-linejoin="round" points="
	501.2,513.47 1043.29,394.1 645,114 "/>
<polygon fill-rule="evenodd" clip-rule="evenodd" fill="#F9C740" stroke="#F9C740" stroke-width="2" stroke-linecap="round" stroke-linejoin="round" points="
	710.83,664.34 501.2,513.47 1043.29,394.1 "/>
<polygon fill-rule="evenodd" clip-rule="evenodd" fill="#FBC73F" stroke="#FBC73F" stroke-width="2" stroke-linecap="round" stroke-linejoin="round" points="
	198.5,229 245,83.34 866.8,57.07 "/>
<polygon fill-rule="evenodd" clip-rule="evenodd" fill="#FCCB42" stroke="#FCCB42" stroke-width="2" stroke-linecap="round" stroke-linejoin="round" points="
	1043.29,394.1 866.8,57.07 645,114 "/>
<polygon fill-rule="evenodd" clip-rule="evenodd" fill="#FCCB42" stroke="#FCCB42" stroke-width="2" stroke-linecap="round" stroke-linejoin="round" points="
	198.5,229 501.2,513.47 645,114 "/>
<polygon fill-rule="evenodd" clip-rule="evenodd" fill="#FAC13E" stroke="#FAC13E" stroke-width="2" stroke-linecap="round" stroke-linejoin="round" points="
	1285,1 1043.29,394.1 1335.5,594.67 "/>
<polygon fill-rule="evenodd" clip-rule="evenodd" fill="#F8BC3A" stroke="#F8BC3A" stroke-width="2" stroke-linecap="round" stroke-linejoin="round" points="
	979.17,928.17 1335.5,594.67 1043.29,394.1 "/>
<polygon fill-rule="evenodd" clip-rule="evenodd" fill="#F9BF3A" stroke="#F9BF3A" stroke-width="2" stroke-linecap="round" stroke-linejoin="round" points="
	710.83,664.34 979.17,928.17 1043.29,394.1 "/>
<polygon fill-rule="evenodd" clip-rule="evenodd" fill="#F7B638" stroke="#F7B638" stroke-linecap="round" stroke-linejoin="round" points="
	807,964.27 979.17,928.17 710.83,664.34 "/>
<polygon fill-rule="evenodd" clip-rule="evenodd" fill="#F6B132" stroke="#F6B132" stroke-linecap="round" stroke-linejoin="round" points="
	1319.17,1055.5 979.17,928.17 1335.5,594.67 "/>
<polygon fill-rule="evenodd" clip-rule="evenodd" fill="#F1A22C" stroke="#F1A22C" stroke-linecap="round" stroke-linejoin="round" points="
	1136.71,1393.67 1319.17,1055.5 979.17,928.17 "/>
<polygon fill-rule="evenodd" clip-rule="evenodd" fill="#EFA02A" stroke="#EFA02A" stroke-linecap="round" stroke-linejoin="round" points="
	677,1284.5 807,964.27 1136.71,1393.67 "/>
<polygon fill-rule="evenodd" clip-rule="evenodd" fill="#F2A62E" stroke="#F2A62E" stroke-linecap="round" stroke-linejoin="round" points="
	979.17,928.17 807,964.27 1136.71,1393.67 "/>
<polygon fill-rule="evenodd" clip-rule="evenodd" fill="#ED9625" stroke="#ED9625" stroke-linecap="round" stroke-linejoin="round" points="
	287.8,1511.67 677,1284.5 230.5,1331.42 "/>
<polygon fill-rule="evenodd" clip-rule="evenodd" fill="#EC9426" stroke="#EC9426" stroke-linecap="round" stroke-linejoin="round" points="
	735.33,1566.17 677,1284.5 1136.71,1393.67 "/>
<polygon fill-rule="evenodd" clip-rule="evenodd" fill="#EC9224" stroke="#EC9224" stroke-linecap="round" stroke-linejoin="round" points="
	287.8,1511.67 735.33,1566.17 677,1284.5 "/>
<polygon fill-rule="evenodd" clip-rule="evenodd" fill="#EB9123" stroke="#EB9123" stroke-linecap="round" stroke-linejoin="round" points="
	1237.33,1534.17 1136.71,1393.67 1353,1325 "/>
<polygon fill-rule="evenodd" clip-rule="evenodd" fill="#EA8B1F" stroke="#EA8B1F" stroke-linecap="round" stroke-linejoin="round" points="
	1391,1601.67 1353,1325 1237.33,1534.17 "/>
<polygon fill-rule="evenodd" clip-rule="evenodd" fill="#ED9927" stroke="#ED9927" stroke-linecap="round" stroke-linejoin="round" points="
	1319.17,1055.51 1353,1325 1136.71,1393.67 "/>
<polygon fill-rule="evenodd" clip-rule="evenodd" fill="#E98D20" stroke="#E98D20" stroke-linecap="round" stroke-linejoin="round" points="
	235.8,1628.67 287.8,1511.67 76.5,1325.34 "/>
<polygon fill-rule="evenodd" clip-rule="evenodd" fill="#EF9B29" stroke="#EF9B29" stroke-linecap="round" stroke-linejoin="round" points="
	327,1059.24 230.5,1331.42 76.5,1325.34 "/>
<polygon fill-rule="evenodd" clip-rule="evenodd" fill="#F29E2A" stroke="#F29E2A" stroke-linecap="round" stroke-linejoin="round" points="
	677,1284.5 327,1059.24 230.5,1331.42 "/>
<polygon fill-rule="evenodd" clip-rule="evenodd" fill="#EC9224" stroke="#EC9224" stroke-linecap="round" stroke-linejoin="round" points="
	287.8,1511.67 230.5,1331.42 76.5,1325.34 "/>
<polygon fill-rule="evenodd" clip-rule="evenodd" fill="#E98A1E" stroke="#E98A1E" stroke-linecap="round" stroke-linejoin="round" points="
	235.8,1628.67 735.33,1566.17 287.8,1511.67 "/>
<polygon fill-rule="evenodd" clip-rule="evenodd" fill="#FBC53F" stroke="#FBC53F" stroke-width="2" stroke-linecap="round" stroke-linejoin="round" points="
	866.8,57.07 1285,1 1043.29,394.1 "/>
<polygon fill-rule="evenodd" clip-rule="evenodd" fill="#FBC53F" stroke="#FBC53F" stroke-width="2" stroke-linecap="round" stroke-linejoin="round" points="
	252.2,556.87 198.5,229 501.2,513.47 "/>
<polygon fill-rule="evenodd" clip-rule="evenodd" fill="#F2A730" stroke="#F2A730" stroke-linecap="round" stroke-linejoin="round" points="
	327,1059.24 807,964.27 677,1284.5 "/>
<polygon fill-rule="evenodd" clip-rule="evenodd" fill="#F7B336" stroke="#F7B336" stroke-width="2" stroke-linecap="round" stroke-linejoin="round" points="
	710.83,664.34 327,1059.24 807,964.27 "/>
<polygon fill-rule="evenodd" clip-rule="evenodd" fill="#EF9B29" stroke="#EF9B29" stroke-linecap="round" stroke-linejoin="round" points="
	1.6,863.87 76.5,1325.34 327,1059.24 "/>
<polygon fill-rule="evenodd" clip-rule="evenodd" fill="#E9881D" stroke="#E9881D" stroke-linecap="round" stroke-linejoin="round" points="
	1.33,1725.34 235.8,1628.67 76.5,1325.34 "/>
<polygon fill-rule="evenodd" clip-rule="evenodd" fill="#ED9625" stroke="#ED9625" stroke-linecap="round" stroke-linejoin="round" points="
	1.6,863.87 76.5,1325.34 1.33,1725.34 "/>
<polygon fill-rule="evenodd" clip-rule="evenodd" fill="#F7BB37" stroke="#F7BB37" stroke-width="2" stroke-linecap="round" stroke-linejoin="round" points="
	252.2,556.87 710.83,664.34 501.2,513.47 "/>
<polygon fill-rule="evenodd" clip-rule="evenodd" fill="#F4B335" stroke="#F4B335" stroke-linecap="round" stroke-linejoin="round" points="
	1.6,863.87 252.2,556.87 327,1059.24 "/>
<polygon fill-rule="evenodd" clip-rule="evenodd" fill="#F7BB37" stroke="#F7BB37" stroke-width="2" stroke-linecap="round" stroke-linejoin="round" points="
	710.83,664.34 327,1059.24 252.2,556.87 "/>
<polygon fill-rule="evenodd" clip-rule="evenodd" fill="#F8BE39" stroke="#F8BE39" stroke-width="2" stroke-linecap="round" stroke-linejoin="round" points="
	198.5,229 1.6,863.87 252.2,556.87 "/>
<polygon fill-rule="evenodd" clip-rule="evenodd" fill="#FAC03B" stroke="#FAC03B" stroke-width="2" stroke-linecap="round" stroke-linejoin="round" points="
	1,1.17 245,83.34 198.5,229 "/>
<polygon fill-rule="evenodd" clip-rule="evenodd" fill="#FAC43E" stroke="#FAC43E" stroke-width="2" stroke-linecap="round" stroke-linejoin="round" points="
	866.8,57.07 1,1.17 245,83.34 "/>
<polygon fill-rule="evenodd" clip-rule="evenodd" fill="#F6CB40" stroke="#F6CB40" stroke-width="2" stroke-linecap="round" stroke-linejoin="round" points="
	1285,1 866.8,57.07 1,1.17 "/>
<polygon fill-rule="evenodd" clip-rule="evenodd" fill="#F3AD31" stroke="#F3AD31" stroke-linecap="round" stroke-linejoin="round" points="
	1639.5,835.5 1335.5,594.67 1319.17,1055.5 "/>
<polygon fill-rule="evenodd" clip-rule="evenodd" fill="#EE9827" stroke="#EE9827" stroke-linecap="round" stroke-linejoin="round" points="
	1742.29,1297.24 1353,1325 1319.17,1055.5 "/>
<polygon fill-rule="evenodd" clip-rule="evenodd" fill="#EF9928" stroke="#EF9928" stroke-linecap="round" stroke-linejoin="round" points="
	1874.8,1053.27 1742.29,1297.24 1639.5,835.5 "/>
<polygon fill-rule="evenodd" clip-rule="evenodd" fill="#EF9E2B" stroke="#EF9E2B" stroke-linecap="round" stroke-linejoin="round" points="
	1319.17,1055.5 1639.5,835.5 1742.29,1297.24 "/>
<polygon fill-rule="evenodd" clip-rule="evenodd" fill="#E98D20" stroke="#E98D20" stroke-linecap="round" stroke-linejoin="round" points="
	1719.2,1527.47 1742.29,1297.24 1353,1325 "/>
<polygon fill-rule="evenodd" clip-rule="evenodd" fill="#E98D20" stroke="#E98D20" stroke-linecap="round" stroke-linejoin="round" points="
	1391,1601.67 1353,1325 1719.2,1527.47 "/>
<polygon fill-rule="evenodd" clip-rule="evenodd" fill="#EA8B1F" stroke="#EA8B1F" stroke-linecap="round" stroke-linejoin="round" points="
	735.33,1566.17 1237.33,1534.17 1136.71,1393.67 "/>
<polygon fill-rule="evenodd" clip-rule="evenodd" fill="#E7811C" stroke="#E7811C" stroke-linecap="round" stroke-linejoin="round" points="
	1391,1601.67 1288.6,1725.07 1719.2,1527.47 "/>
<polygon fill-rule="evenodd" clip-rule="evenodd" fill="#E57E19" stroke="#E57E19" stroke-linecap="round" stroke-linejoin="round" points="
	2014.6,1649.87 1719.2,1527.47 1288.6,1725.07 "/>
<polygon fill-rule="evenodd" clip-rule="evenodd" fill="#E7821A" stroke="#E7821A" stroke-linecap="round" stroke-linejoin="round" points="
	1742.29,1297.24 2014.6,1649.87 1719.2,1527.47 "/>
<polygon fill-rule="evenodd" clip-rule="evenodd" fill="#E7841C" stroke="#E7841C" stroke-linecap="round" stroke-linejoin="round" points="
	1237.33,1534.17 1288.6,1725.07 1391,1601.67 "/>
<polygon fill-rule="evenodd" clip-rule="evenodd" fill="#E7841C" stroke="#E7841C" stroke-linecap="round" stroke-linejoin="round" points="
	949.5,1725.42 1237.33,1534.17 1288.6,1725.07 "/>
<polygon fill-rule="evenodd" clip-rule="evenodd" fill="#EA8B1F" stroke="#EA8B1F" stroke-linecap="round" stroke-linejoin="round" points="
	735.33,1566.17 949.5,1725.42 1237.33,1534.17 "/>
<polygon fill-rule="evenodd" clip-rule="evenodd" fill="#E9861E" stroke="#E9861E" stroke-linecap="round" stroke-linejoin="round" points="
	235.8,1628.67 949.5,1725.42 735.33,1566.17 "/>
<polygon fill-rule="evenodd" clip-rule="evenodd" fill="#E8831B" stroke="#E8831B" stroke-linecap="round" stroke-linejoin="round" points="
	1.33,1725.34 949.5,1725.42 235.8,1628.67 "/>
<polygon fill-rule="evenodd" clip-rule="evenodd" fill="#E7801B" stroke="#E7801B" stroke-linecap="round" stroke-linejoin="round" points="
	2209.33,1445.17 2014.6,1649.87 1742.29,1297.24 "/>
<polygon fill-rule="evenodd" clip-rule="evenodd" fill="#E47615" stroke="#E47615" stroke-linecap="round" stroke-linejoin="round" points="
	2221.5,1724.67 2014.6,1649.87 1288.6,1725.07 "/>
<polygon fill-rule="evenodd" clip-rule="evenodd" fill="#E27111" stroke="#E27111" stroke-linecap="round" stroke-linejoin="round" points="
	2389.2,1568.67 2209.33,1445.17 2221.5,1724.67 "/>
<polygon fill-rule="evenodd" clip-rule="evenodd" fill="#E27413" stroke="#E27413" stroke-linecap="round" stroke-linejoin="round" points="
	2014.6,1649.87 2209.33,1445.17 2221.5,1724.67 "/>
<polygon fill-rule="evenodd" clip-rule="evenodd" fill="#E16C0F" stroke="#E16C0F" stroke-linecap="round" stroke-linejoin="round" points="
	2561,1724.67 2389.2,1568.67 2221.5,1724.67 "/>
<polygon fill-rule="evenodd" clip-rule="evenodd" fill="#E67F1A" stroke="#E67F1A" stroke-linecap="round" stroke-linejoin="round" points="
	2211.5,1005.5 2209.33,1445.17 2389.2,1568.67 "/>
<polygon fill-rule="evenodd" clip-rule="evenodd" fill="#EA8B1F" stroke="#EA8B1F" stroke-linecap="round" stroke-linejoin="round" points="
	1874.8,1053.27 2209.33,1445.17 1742.29,1297.24 "/>
<polygon fill-rule="evenodd" clip-rule="evenodd" fill="#E98A20" stroke="#E98A20" stroke-linecap="round" stroke-linejoin="round" points="
	2211.5,1005.5 1874.8,1053.27 2209.33,1445.17 "/>
<polygon fill-rule="evenodd" clip-rule="evenodd" fill="#F19D29" stroke="#F19D29" stroke-linecap="round" stroke-linejoin="round" points="
	2179.57,523.38 1874.8,1053.27 1639.5,835.5 "/>
<polygon fill-rule="evenodd" clip-rule="evenodd" fill="#ED9726" stroke="#ED9726" stroke-linecap="round" stroke-linejoin="round" points="
	2211.5,1005.5 2179.57,523.38 1874.8,1053.27 "/>
<polygon fill-rule="evenodd" clip-rule="evenodd" fill="#EC9426" stroke="#EC9426" stroke-linecap="round" stroke-linejoin="round" points="
	2394,702.67 2179.57,523.38 2211.5,1005.5 "/>
<polygon fill-rule="evenodd" clip-rule="evenodd" fill="#EA8B1F" stroke="#EA8B1F" stroke-linecap="round" stroke-linejoin="round" points="
	2560.8,865.07 2211.5,1005.5 2394,702.67 "/>
<polygon fill-rule="evenodd" clip-rule="evenodd" fill="#E7821A" stroke="#E7821A" stroke-linecap="round" stroke-linejoin="round" points="
	2389.2,1568.67 2560.8,865.07 2211.5,1005.5 "/>
<polygon fill-rule="evenodd" clip-rule="evenodd" fill="#ED9527" stroke="#ED9527" stroke-linecap="round" stroke-linejoin="round" points="
	2377.4,424.27 2179.57,523.38 2394,702.67 "/>
<polygon fill-rule="evenodd" clip-rule="evenodd" fill="#EA8E21" stroke="#EA8E21" stroke-linecap="round" stroke-linejoin="round" points="
	2560.8,865.07 2377.4,424.27 2394,702.67 "/>
<polygon fill-rule="evenodd" clip-rule="evenodd" fill="#F2A52F" stroke="#F2A52F" stroke-linecap="round" stroke-linejoin="round" points="
	1910.33,239.67 2179.57,523.38 1639.5,835.5 "/>
<polygon fill-rule="evenodd" clip-rule="evenodd" fill="#F4B033" stroke="#F4B033" stroke-linecap="round" stroke-linejoin="round" points="
	1335.5,594.67 1910.33,239.67 1639.5,835.5 "/>
<polygon fill-rule="evenodd" clip-rule="evenodd" fill="#EE9827" stroke="#EE9827" stroke-linecap="round" stroke-linejoin="round" points="
	2294,166.07 2179.57,523.38 2377.4,424.27 "/>
<polygon fill-rule="evenodd" clip-rule="evenodd" fill="#F29E2A" points="1910.33,239.67 2294,166.07 2179.57,523.38 "/>
<polygon fill-rule="evenodd" clip-rule="evenodd" fill="#F1A22C" stroke="#F1A22C" stroke-linecap="round" stroke-linejoin="round" points="
	1900,109.42 2294,166.07 1910.33,239.67 "/>
<polygon fill-rule="evenodd" clip-rule="evenodd" fill="#F5AF33" stroke="#F5AF33" stroke-linecap="round" stroke-linejoin="round" points="
	1285,1 1910.33,239.67 1900,109.42 "/>
<polygon fill-rule="evenodd" clip-rule="evenodd" fill="#F2A531" stroke="#F2A531" stroke-linecap="round" stroke-linejoin="round" points="
	2561,0.67 1900,109.42 1285,1 "/>
<polygon fill-rule="evenodd" clip-rule="evenodd" fill="#ED9927" stroke="#ED9927" stroke-linecap="round" stroke-linejoin="round" points="
	2294,166.07 2561,0.67 1900,109.42 "/>
<polygon fill-rule="evenodd" clip-rule="evenodd" fill="#EC9426" stroke="#EC9426" stroke-linecap="round" stroke-linejoin="round" points="
	2377.4,424.27 2561,0.67 2294,166.07 "/>
<polygon fill-rule="evenodd" clip-rule="evenodd" fill="#EB8F22" stroke="#EB8F22" stroke-linecap="round" stroke-linejoin="round" points="
	2560.8,865.07 2561,0.67 2377.4,424.27 "/>
<polygon fill-rule="evenodd" clip-rule="evenodd" fill="#E37513" stroke="#E37513" stroke-linecap="round" stroke-linejoin="round" points="
	2561,1724.67 2560.8,865.07 2389.2,1568.67 "/>
<polygon fill-rule="evenodd" clip-rule="evenodd" fill="#F9BF3A" stroke="#F9BF3A" stroke-width="2" stroke-linecap="round" stroke-linejoin="round" points="
	1,1.17 1.6,863.87 198.5,229.01 "/>
<polygon fill-rule="evenodd" clip-rule="evenodd" fill="#FAC13E" stroke="#FAC13E" stroke-linecap="round" stroke-linejoin="round" points="
	1285,1 1335.5,594.67 1910.33,239.67 "/>
</svg>
